<?xml version="1.0" encoding="UTF-8" standalone="no"?>
<!-- Generator: Adobe Illustrator 16.0.0, SVG Export Plug-In . SVG Version: 6.00 Build 0)  -->

<svg
   xmlns:dc="http://purl.org/dc/elements/1.1/"
   xmlns:cc="http://creativecommons.org/ns#"
   xmlns:rdf="http://www.w3.org/1999/02/22-rdf-syntax-ns#"
   xmlns:svg="http://www.w3.org/2000/svg"
   xmlns="http://www.w3.org/2000/svg"
   xmlns:sodipodi="http://sodipodi.sourceforge.net/DTD/sodipodi-0.dtd"
   xmlns:inkscape="http://www.inkscape.org/namespaces/inkscape"
   version="1.1"
   id="svg2"
   x="0px"
   y="0px"
   width="248.571px"
   height="248.571px"
   viewBox="0 0 248.571 248.571"
   enable-background="new 0 0 248.571 248.571"
   xml:space="preserve"
   inkscape:version="0.91 r13725"
   sodipodi:docname="Video-Game-Controller-Icon-IDV-green.svg"><metadata
     id="metadata57"><rdf:RDF><cc:Work
         rdf:about=""><dc:format>image/svg+xml</dc:format><dc:type
           rdf:resource="http://purl.org/dc/dcmitype/StillImage" /><dc:title></dc:title></cc:Work></rdf:RDF></metadata><defs
     id="defs55" /><sodipodi:namedview
     pagecolor="#ffffff"
     bordercolor="#666666"
     borderopacity="1"
     objecttolerance="10"
     gridtolerance="10"
     guidetolerance="10"
     inkscape:pageopacity="0"
     inkscape:pageshadow="2"
     inkscape:window-width="700"
     inkscape:window-height="480"
     id="namedview53"
     showgrid="false"
     inkscape:zoom="0.94942693"
     inkscape:cx="124.2855"
     inkscape:cy="124.2855"
     inkscape:window-x="0"
     inkscape:window-y="0"
     inkscape:window-maximized="0"
     inkscape:current-layer="layer1" /><path
     fill="#333333"
     d="M87.423,88.968c0.562,3.126-1.517,6.115-4.642,6.676l-33.956,6.102c-3.126,0.562-6.115-1.517-6.676-4.642  l0,0c-0.562-3.126,1.517-6.115,4.642-6.676l33.956-6.102C83.873,83.764,86.861,85.842,87.423,88.968L87.423,88.968z"
     id="path3" /><g
     id="layer1"
     transform="translate(-285.71429,-365.21932)"><path
       id="path2985"
       fill="#EA3D4E"
       d="M534.285,489.505c0.024,68.641-55.601,124.305-124.242,124.329   s-124.305-55.602-124.329-124.243c0-0.029,0-0.058,0-0.086c-0.024-68.641,55.602-124.305,124.243-124.329   c68.641-0.023,124.305,55.602,124.328,124.243C534.285,489.447,534.285,489.476,534.285,489.505z"
       style="fill:#6ba7c2;fill-opacity:1" /><path
       id="path3099"
       fill="#231F20"
       stroke="#231F20"
       stroke-width="6"
       d="M410.951,366.726   c-2.583,27.364-8.65,40.051-11.059,50.922c-1.204,5.436-1.468,10.432,0.094,16.466s4.943,13.107,11.027,22.808l0.846-0.518   c-6.057-9.659-9.378-16.649-10.901-22.534c-1.523-5.885-1.247-10.662-0.063-16.008c2.369-10.694,8.465-23.569,11.058-51.044   L410.951,366.726L410.951,366.726z" /><g
       id="g3915"><g
         id="g9"><path
           id="path2993_1_"
           fill="#C1BC9D"
           d="M399.265,504.94c0,22.092-17.909,40-40,40c-22.092,0-40-17.908-40-40l0,0     c0-22.091,17.908-40,40-40C381.356,464.94,399.265,482.849,399.265,504.94z" /><path
           id="path2993-7_1_"
           fill="#C1BC9D"
           d="M501.264,504.94c0,22.092-17.908,40-40,40s-40-17.908-40-40l0,0     c0-22.091,17.908-40,40-40S501.264,482.849,501.264,504.94z" /><rect
           id="rect3031_1_"
           x="356.05"
           y="464.94"
           fill="#C1BC9D"
           width="105.713"
           height="60" /></g><g
         id="g14"><path
           id="path2993"
           fill="#F2F2F2"
           d="M399.598,496.273c0,22.092-17.909,40-40,40c-22.092,0-40-17.908-40-40l0,0     c0-22.091,17.908-40,40-40C381.689,456.273,399.598,474.182,399.598,496.273z" /><path
           id="path2993-7"
           fill="#F2F2F2"
           d="M501.598,496.273c0,22.092-17.908,40-40,40s-40-17.908-40-40l0,0     c0-22.091,17.908-40,40-40S501.598,474.182,501.598,496.273z" /><rect
           id="rect3031"
           x="356.384"
           y="456.273"
           fill="#F2F2F2"
           width="105.714"
           height="60" /></g><g
         id="g19"><path
           id="path3055_2_"
           fill="#C1BC9D"
           d="M472.387,478.471c0,5.061-4.104,9.163-9.164,9.163s-9.163-4.102-9.163-9.163     c0-5.061,4.103-9.163,9.163-9.163S472.387,473.41,472.387,478.471L472.387,478.471z" /><path
           id="path3055-0_2_"
           fill="#C1BC9D"
           d="M472.531,516.005c0,5.061-4.103,9.163-9.162,9.163c-5.062,0-9.164-4.103-9.164-9.163     c0-5.062,4.103-9.164,9.164-9.164C468.429,506.841,472.531,510.943,472.531,516.005L472.531,516.005z" /><path
           id="path3055-9_2_"
           fill="#C1BC9D"
           d="M491.125,497.376c0,5.06-4.104,9.163-9.162,9.163c-5.063,0-9.164-4.104-9.164-9.163     c0-5.062,4.102-9.164,9.164-9.164C487.021,488.212,491.125,492.315,491.125,497.376L491.125,497.376z" /><path
           id="path3055-4_2_"
           fill="#C1BC9D"
           d="M453.724,497.356c0,5.063-4.103,9.164-9.163,9.164c-5.062,0-9.163-4.102-9.163-9.164     c0-5.06,4.102-9.163,9.163-9.163C449.621,488.193,453.724,492.296,453.724,497.356L453.724,497.356z" /></g><g
         id="g25"><path
           id="path3055_1_"
           fill="#141212"
           d="M472.387,477.221c0,5.061-4.104,9.163-9.164,9.163s-9.163-4.102-9.163-9.163     c0-5.061,4.103-9.163,9.163-9.163S472.387,472.16,472.387,477.221L472.387,477.221z" /><path
           id="path3055-0_1_"
           fill="#141212"
           d="M472.531,514.755c0,5.061-4.103,9.163-9.162,9.163c-5.062,0-9.164-4.103-9.164-9.163     c0-5.062,4.103-9.164,9.164-9.164C468.429,505.591,472.531,509.693,472.531,514.755L472.531,514.755z" /><path
           id="path3055-9_1_"
           fill="#141212"
           d="M491.125,496.126c0,5.06-4.104,9.163-9.162,9.163c-5.063,0-9.164-4.104-9.164-9.163     c0-5.062,4.102-9.164,9.164-9.164C487.021,486.962,491.125,491.065,491.125,496.126L491.125,496.126z" /><path
           id="path3055-4_1_"
           fill="#141212"
           d="M453.724,496.106c0,5.063-4.103,9.164-9.163,9.164c-5.062,0-9.163-4.102-9.163-9.164     c0-5.06,4.102-9.163,9.163-9.163C449.621,486.943,453.724,491.046,453.724,496.106L453.724,496.106z" /></g><path
         id="path3055"
         fill="#333333"
         d="M472.387,474.846c0,5.061-4.104,9.163-9.164,9.163s-9.163-4.103-9.163-9.163    c0-5.061,4.103-9.163,9.163-9.163S472.387,469.785,472.387,474.846L472.387,474.846z" /><path
         id="path3055-0"
         fill="#333333"
         d="M472.531,512.38c0,5.061-4.103,9.163-9.162,9.163c-5.062,0-9.164-4.103-9.164-9.163    c0-5.062,4.103-9.164,9.164-9.164C468.429,503.216,472.531,507.318,472.531,512.38L472.531,512.38z" /><path
         id="path3055-9"
         fill="#333333"
         d="M491.125,493.751c0,5.06-4.104,9.163-9.162,9.163c-5.063,0-9.164-4.104-9.164-9.163    c0-5.062,4.102-9.164,9.164-9.164C487.021,484.588,491.125,488.69,491.125,493.751L491.125,493.751z" /><path
         id="path3055-4"
         fill="#333333"
         d="M453.724,493.731c0,5.063-4.103,9.164-9.163,9.164c-5.062,0-9.163-4.102-9.163-9.164    c0-5.06,4.102-9.163,9.163-9.163C449.621,484.568,453.724,488.671,453.724,493.731L453.724,493.731z" /><g
         id="g35"><path
           fill="#C1BC9D"
           d="M383.75,502.13c0,3.797-3.078,6.875-6.875,6.875h-36.25c-3.797,0-6.875-3.078-6.875-6.875l0,0     c0-3.797,3.078-6.875,6.875-6.875h36.25C380.672,495.255,383.75,498.333,383.75,502.13L383.75,502.13z"
           id="path37" /><path
           fill="#C1BC9D"
           d="M358.625,477.13c3.797,0,6.875,3.078,6.875,6.875v36.25c0,3.797-3.078,6.875-6.875,6.875l0,0     c-3.797,0-6.875-3.078-6.875-6.875v-36.25C351.75,480.208,354.828,477.13,358.625,477.13L358.625,477.13z"
           id="path39" /></g><g
         id="g41"><path
           fill="#141212"
           d="M383.75,499.255c0,3.797-3.078,6.875-6.875,6.875h-36.25c-3.797,0-6.875-3.078-6.875-6.875l0,0     c0-3.797,3.078-6.875,6.875-6.875h36.25C380.672,492.38,383.75,495.458,383.75,499.255L383.75,499.255z"
           id="path43" /><path
           fill="#141212"
           d="M358.625,474.255c3.797,0,6.875,3.078,6.875,6.875v36.25c0,3.797-3.078,6.875-6.875,6.875l0,0     c-3.797,0-6.875-3.078-6.875-6.875v-36.25C351.75,477.333,354.828,474.255,358.625,474.255L358.625,474.255z"
           id="path45" /></g><g
         id="g47"><path
           fill="#333333"
           d="M383.75,495.755c0,3.797-3.078,6.875-6.875,6.875h-36.25c-3.797,0-6.875-3.078-6.875-6.875l0,0     c0-3.797,3.078-6.875,6.875-6.875h36.25C380.672,488.88,383.75,491.958,383.75,495.755L383.75,495.755z"
           id="path49" /><path
           fill="#333333"
           d="M358.625,470.755c3.797,0,6.875,3.078,6.875,6.875v36.25c0,3.797-3.078,6.875-6.875,6.875l0,0     c-3.797,0-6.875-3.078-6.875-6.875v-36.25C351.75,473.833,354.828,470.755,358.625,470.755L358.625,470.755z"
           id="path51" /></g></g></g></svg>